{
	"asset":{
		"generator":"Khronos glTF Blender I/O v3.6.27",
		"version":"2.0"
	},
	"scene":0,
	"scenes":[
		{
			"name":"Scene",
			"nodes":[
				0,
				1
			]
		}
	],
	"nodes":[
		{
			"name":"world"
		},
		{
			"mesh":0,
			"name":"ProcessedMeshNode_LOD1",
			"translation":[
				0,
				0.5,
				0
			]
		}
	],
	"materials":[
		{
			"name":"SimplygonCastMaterial",
			"pbrMetallicRoughness":{
				"baseColorTexture":{
					"index":0
				}
			}
		}
	],
	"meshes":[
		{
			"name":"ProcessedGeometry_LOD1",
			"primitives":[
				{
					"attributes":{
						"POSITION":0,
						"NORMAL":1,
						"TEXCOORD_0":2
					},
					"indices":3,
					"material":0
				}
			]
		}
	],
	"textures":[
		{
			"sampler":0,
			"source":0
		}
	],
	"images":[
		{
			"bufferView":4,
			"mimeType":"image/png",
			"name":"Basecolor_0"
		}
	],
	"accessors":[
		{
			"bufferView":0,
			"componentType":5126,
			"count":1529,
			"max":[
				0.29348012804985046,
				0.42683708667755127,
				0.24275536835193634
			],
			"min":[
				-0.3232760727405548,
				-0.43446749448776245,
				-0.10135213285684586
			],
			"type":"VEC3"
		},
		{
			"bufferView":1,
			"componentType":5126,
			"count":1529,
			"type":"VEC3"
		},
		{
			"bufferView":2,
			"componentType":5126,
			"count":1529,
			"type":"VEC2"
		},
		{
			"bufferView":3,
			"componentType":5123,
			"count":5340,
			"type":"SCALAR"
		}
	],
	"bufferViews":[
		{
			"buffer":0,
			"byteLength":18348,
			"byteOffset":0,
			"target":34962
		},
		{
			"buffer":0,
			"byteLength":18348,
			"byteOffset":18348,
			"target":34962
		},
		{
			"buffer":0,
			"byteLength":12232,
			"byteOffset":36696,
			"target":34962
		},
		{
			"buffer":0,
			"byteLength":10680,
			"byteOffset":48928,
			"target":34963
		},
		{
			"buffer":0,
			"byteLength":1232307,
			"byteOffset":59608
		}
	],
	"samplers":[
		{
			"magFilter":9729,
			"minFilter":9987
		}
	],
	"buffers":[
		{
			"byteLength":1291916,
			"uri":"data:application/octet-stream;base64,"
		}
	]
}
